name GIL12_fast2Moments.mot
datacolumns 7
datarows 74
range 0.09166671 0.70000005
endheader

                time	          RHipMoment	          LHipMoment	         RKneeMoment	         LKneeMoment	        RAnkleMoment	        LAnkleMoment	
          0.09166671	        827.55017090	       -422.04632568	        552.60260010	        111.38101196	        -99.62175751	        -48.65761566	
          0.10000004	        763.38623047	       -392.19674683	        589.98016357	        123.44884491	        -86.74884796	        -46.85839844	
          0.10833337	        674.93859863	       -364.63174438	        603.09692383	        137.26806641	        -71.19764709	        -42.38750076	
          0.11666670	        585.69750977	       -343.04260254	        586.95330811	        152.13612366	        -55.07113266	        -36.34482193	
          0.12500004	        511.66711426	       -323.93585205	        539.56829834	        165.89619446	        -33.84090042	        -29.97102547	
          0.13333337	        453.96939087	       -304.35156250	        472.75076294	        175.41398621	        -11.11425686	        -24.29537964	
          0.14166671	        401.66433716	       -278.66809082	        397.87133789	        177.74545288	         14.45939922	        -19.90234375	
          0.15000004	        314.37277222	       -241.55609131	        340.32391357	        171.22326660	         34.81438828	        -16.83416176	
          0.15833338	        235.42164612	       -199.97370911	        281.58465576	        156.32194519	         60.36045456	        -14.77529812	
          0.16666672	        188.04899597	       -153.72447205	        216.65933228	        135.49461365	         87.25064850	        -13.35198307	
          0.17500004	        168.73220825	       -113.75970459	        145.70040894	        112.03955841	        117.61070251	        -12.28115082	
          0.18333337	        152.97653198	        -80.73731995	         79.50647736	         88.83951569	        146.93405151	        -11.43274021	
          0.19166671	        139.38514709	        -59.01341248	         15.31273937	         68.02877045	        177.88864136	        -10.79338837	
          0.20000005	        117.66020966	        -41.33786774	        -39.50183868	         50.75365067	        207.41981506	        -10.37102795	
          0.20833337	         93.98007965	        -31.59150124	        -85.65762329	         37.33679962	        237.00846863	        -10.16778946	
          0.21666671	         63.95653152	        -13.60085773	       -118.63390350	         27.44850159	        264.06961060	        -10.18639469	
          0.22500004	         39.31424713	         -1.60335839	       -147.41069031	         20.81149483	        293.38824463	        -10.43772030	
          0.23333338	         18.14903069	         10.60733795	       -172.11862183	         17.17940331	        322.29711914	        -10.93879890	
          0.24166670	         11.58061981	         13.01066971	       -200.96076965	         15.78141117	        354.18399048	        -11.68705368	
          0.25000006	          8.62887192	         12.23851681	       -226.75053406	         14.70556736	        385.26870728	        -12.63698959	
          0.25833338	         -0.07185379	          5.89994001	       -247.99578857	         11.65951729	        419.01663208	        -13.68454361	
          0.26666671	        -36.21136475	          3.99945641	       -253.57704163	          4.67931795	        452.34518433	        -14.68051147	
          0.27500004	        -75.70234680	          5.98228788	       -257.93948364	         -7.60111904	        489.07531738	        -15.47880173	
          0.28333336	       -112.14718628	         23.63604355	       -262.65551758	        -26.07773781	        525.69610596	        -15.97670555	
          0.29166669	       -145.24192810	         53.98427963	       -272.51013184	        -50.99302292	        568.29431152	        -16.11149979	
          0.30000004	       -192.05728149	         96.77722931	       -278.42056274	        -81.82246399	        613.15814209	        -15.81945610	
          0.30833337	       -244.61010742	        149.22552490	       -286.94110107	       -117.38619232	        664.09167480	        -14.99429989	
          0.31666672	       -301.91818237	        208.97268677	       -294.76779175	       -156.21961975	        716.08868408	        -13.50010014	
          0.32500005	       -359.75881958	        273.15042114	       -305.87170410	       -196.67613220	        774.54492188	        -11.24123192	
          0.33333337	       -425.29983521	        340.79180908	       -312.55358887	       -236.83795166	        834.73095703	         -8.24150181	
          0.34166670	       -492.82446289	        410.91928101	       -316.78628540	       -274.52374268	        898.01361084	         -4.68281651	
          0.35000005	       -568.02862549	        480.08004761	       -309.30148315	       -307.26303101	        955.71380615	         -0.87258554	
          0.35833338	       -637.95178223	        539.62194824	       -296.55429077	       -332.22796631	       1009.60626221	          2.83989787	
          0.36666670	       -710.73583984	        577.76080322	       -271.43945313	       -346.60134888	       1055.76574707	          6.14523268	
          0.37500003	       -776.82617188	        585.10058594	       -238.89265442	       -348.34051514	       1094.63879395	          8.78138447	
          0.38333338	       -834.23522949	        555.59484863	       -196.78956604	       -336.69180298	       1118.93505859	         10.45685005	
          0.39166671	       -879.78265381	        485.89221191	       -150.41775513	       -312.28298950	       1131.59924316	         10.79391956	
          0.40000004	       -913.72088623	        380.11639404	        -98.48448181	       -277.23464966	       1125.77795410	          9.36297226	
          0.40833336	       -929.25909424	        255.51087952	        -48.71797562	       -235.40039063	       1105.30065918	          5.84063673	
          0.41666672	       -945.04296875	        181.39213562	          9.16426563	       -198.68212891	       1065.14514160	         -9.82275391	
          0.42500004	       -954.82714844	       1248.09814453	         70.82036591	       -469.31036377	       1007.38214111	       -145.66249084	
          0.43333337	       -932.84906006	       1047.57739258	        124.41281128	       -232.55807495	        924.20245361	       -219.03788757	
          0.44166669	       -865.53253174	        824.27557373	        159.59790039	        -13.03969955	        816.49865723	       -256.40182495	
          0.45000005	       -749.50640869	        713.99487305	        169.88795471	        153.56503296	        683.98553467	       -276.36242676	
          0.45833337	       -625.45062256	        886.72143555	        168.11361694	        210.31262207	        533.95074463	       -271.55105591	
          0.46666670	       -491.07879639	       1185.54321289	        141.48681641	        269.05627441	        369.43713379	       -232.33627319	
          0.47500005	       -375.12185669	        886.13476563	         95.38644409	        508.05758667	        210.85104370	       -210.43362427	
          0.48333338	       -371.28402710	        914.75494385	         88.71755219	        603.76879883	         68.55839539	       -169.11964417	
          0.49166670	       -419.18984985	        900.30090332	        112.79303741	        707.19042969	        -14.70297337	       -136.75178528	
          0.50000000	       -419.22262573	        859.37152100	        119.10356903	        768.68469238	        -48.55289078	       -101.97234344	
          0.50833338	       -380.52944946	        810.94732666	        124.84188080	        805.30755615	        -48.64388657	        -62.83636093	
          0.51666671	       -335.29110718	        743.43273926	        129.16957092	        823.35955811	        -45.16268921	        -19.63451576	
          0.52500004	       -291.50750732	        655.94067383	        133.61593628	        822.16619873	        -39.29961014	         27.12303162	
          0.53333336	       -255.06848145	        577.64764404	        138.53265381	        788.41070557	        -32.48333740	         73.41649628	
          0.54166675	       -227.42161560	        515.76385498	        142.63497925	        722.04998779	        -26.00526047	        118.33309937	
          0.55000007	       -207.21087646	        434.93872070	        143.95469666	        642.50891113	        -20.77335930	        158.42080688	
          0.55833340	       -191.42837524	        326.26498413	        141.04791260	        566.84216309	        -17.12990570	        192.48181152	
          0.56666672	       -175.48190308	        229.34367371	        133.44143677	        483.18646240	        -14.87730694	        221.47471619	
          0.57500005	       -154.58154297	        174.29408264	        121.49765015	        389.31295776	        -13.49094677	        244.50581360	
          0.58333337	       -126.01710510	        137.40547180	        106.13298798	        296.18896484	        -12.42263794	        261.02963257	
          0.59166670	        -91.33706665	         97.50188446	         89.00691223	        215.81909180	        -11.45083714	        272.09027100	
          0.60000002	        -54.97776413	         79.20718384	         72.10041809	        131.59555054	        -10.60431194	        281.58734131	
          0.60833335	        -21.57669640	         60.71225357	         57.05838776	         58.35341263	         -9.97618294	        291.35250854	
          0.61666673	          5.34823561	         48.18815613	         44.93450165	         -6.12263393	         -9.68560314	        300.05505371	
          0.62500006	         23.46127892	         39.26146698	         36.32875443	        -59.48494720	         -9.78352737	        311.03915405	
          0.63333338	         31.69949722	         28.49765205	         31.58864403	        -99.37442017	        -10.23072243	        323.68383789	
          0.64166671	         31.03542328	         15.10790348	         30.53584671	       -127.35386658	        -10.91180515	        337.66699219	
          0.65000004	         24.64080048	          1.14441276	         32.11153793	       -146.84896851	        -11.69541454	        352.30392456	
          0.65833336	         16.63743019	         -7.52526665	         34.52780151	       -164.77204895	        -12.47289753	        369.10540771	
          0.66666669	         10.63430405	         -1.11660457	         35.76899338	       -189.43515015	        -13.14995384	        388.82534790	
          0.67500001	          9.18093777	        -39.37013626	         33.99108887	       -192.66409302	        -13.66484261	        408.61093140	
          0.68333340	         13.82847691	        -76.85667419	         27.78036118	       -198.29324341	        -14.02340221	        432.35461426	
          0.69166672	         24.80485725	        -85.93435669	         16.43843651	       -222.09771729	        -14.28507805	        459.55441284	
          0.70000005	         40.88524246	       -103.87599945	          0.05849837	       -244.55418396	        -14.50302792	        489.82150269	
